<svg xmlns="http://www.w3.org/2000/svg" viewBox="0 0 512 512"><g fill="#00cc71"><path d="M121 301c-33.091 0-60-26.909-60-60v-45c0-8.276-6.724-15-15-15s-16 6.724-16 15c0 8.291-6.709 15-15 15s-15-6.709-15-15c0-24.814 21.186-45 46-45s45 20.186 45 45v45c0 16.538 13.462 30 30 30 6.885 0 13.359-2.271 18.721-6.563 6.475-5.2 15.908-4.131 21.094 2.344 5.171 6.475 4.116 15.908-2.344 21.094C147.88 296.342 134.579 301 121 301zM196 512c-24.814 0-45-20.186-45-45 0-8.291 6.709-15 15-15s15 6.709 15 15c0 8.276 6.724 15 15 15s15-6.724 15-15V346c0-8.291 6.709-15 15-15s15 6.709 15 15v121c0 24.814-20.186 45-45 45zM151 361v15c0 8.276-6.724 15-15 15s-15-6.724-15-15c0-8.291-6.709-15-15-15s-15 6.709-15 15c0 24.814 20.186 45 45 45s45-20.186 45-45v-15l-18.75-30L151 361z"/></g><g fill="#00ab5e"><path d="M467 151c-24.814 0-46 20.186-46 45v45c0 16.538-13.462 30-30 30-6.885 0-13.359-2.271-18.721-6.563-6.475-5.186-15.894-4.072-21.094 2.344-5.171 6.475-4.116 15.908 2.344 21.094C364.12 296.342 377.421 301 391 301c33.091 0 60-26.909 60-60v-45c0-8.276 7.724-15 16-15s15 6.724 15 15c0 8.291 6.709 15 15 15s15-6.709 15-15c0-24.814-20.186-45-45-45zM316 512c-24.814 0-45-20.186-45-45V346c0-8.291 6.709-15 15-15s15 6.709 15 15v121c0 8.276 6.724 15 15 15s15-6.724 15-15c0-8.291 6.709-15 15-15s15 6.709 15 15c0 24.814-20.186 45-45 45zM406 331c-8.291 0-15 6.709-15 15v30c0 8.276-6.724 15-15 15s-15-6.724-15-15v-15l-15-30-15 30v15c0 24.814 20.186 45 45 45s45-20.186 45-45v-30c0-8.291-6.709-15-15-15z"/></g><path d="M380.799 207.7C387.7 189.699 391 170.799 391 151 391 68.2 330.399 0 256 0S121 68.2 121 151c0 19.799 3.3 38.699 10.201 56.7l-1.8 63.898c14.7 24.901 21.599 45.601 21.599 66V361h210v-23.401c0-20.4 6.899-41.1 21.599-66l-1.8-63.899z" fill="#54e360"/><path d="M380.799 207.7C387.7 189.699 391 170.799 391 151 391 68.2 330.399 0 256 0v361h105v-23.401c0-20.4 17.19-37.423 21.599-66 .401-2.599-1.8-63.899-1.8-63.899z" fill="#00cc71"/><path d="M346 286c-24.814 0-45-20.186-45-45s20.186-45 45-45 45 20.186 45 45-20.186 45-45 45z" fill="#9bfcff"/><path d="M346 256c-8.271 0-15-6.729-15-15s6.729-15 15-15 15 6.729 15 15-6.729 15-15 15z" fill="#444"/><path d="M166 286c-24.814 0-45-20.186-45-45s20.186-45 45-45 45 20.186 45 45-20.186 45-45 45z" fill="#e4feff"/><path d="M166 256c-8.271 0-15-6.729-15-15s6.729-15 15-15 15 6.729 15 15-6.729 15-15 15z" fill="#5a5a5a"/></svg>